<svg viewBox="0 0 24 24" fill="none" xmlns="http://www.w3.org/2000/svg">
    <path
        d="M22.035 13.806a.527.527 0 01-.384-.617c1.227-5.632-2.2-11.31-7.845-12.817C8-1.178 2.008 2.26.438 8.039l-.002.01-.005.016c-.955 3.583-.315 7.338 1.813 10.44a12.659 12.659 0 006.086 4.713c6.887 2.508 14.303-1.25 16.495-7.968a.643.643 0 00-.448-.819l-2.343-.625zm-11.44 5.457A8.127 8.127 0 015.62 15.46a8.083 8.083 0 01-.82-6.187c.935-3.441 4.502-5.49 7.96-4.566 3.285.877 5.309 4.121 4.72 7.397a.6.6 0 00.434.69l2.206.589c.28.075.437.37.344.642-1.38 4.025-5.69 6.356-9.87 5.24z"
        fill="url(#paint0_linear)" />
    <defs>
        <linearGradient id="paint0_linear" x1="0" y1="0" x2="26.366" y2="22.208"
            gradientUnits="userSpaceOnUse">
            <stop stop-color="#446DFF" />
            <stop offset="1" stop-color="#637DFF" stop-opacity=".75" />
        </linearGradient>
    </defs>
</svg>