<?xml version="1.0" standalone="no"?><svg version="1.0" xmlns="http://www.w3.org/2000/svg" width="256" height="256" viewBox="0 0 1024 1024"><g transform="translate(0,1024) scale(0.1,-0.1)" fill="#FF3D13" stroke="none"><path d="M2155 10223 c-584 -37 -1095 -270 -1502 -686 -358 -365 -564 -795 -635 -1322 -19 -148 -19 -6062 0 -6210 30 -218 75 -396 148 -578 123 -306 288 -551 530 -788 355 -346 778 -552 1279 -624 150 -22 6140 -22 6290 0 501 72 924 278 1279 624 242 237 407 482 530 788 73 182 118 360 148 578 19 148 19 6062 0 6210 -71 527 -277 957 -635 1322 -322 328 -717 548 -1147 638 -249 52 -33 49 -3255 50 -1639 1 -3002 0 -3030 -2z m2415 -1052 c509 -89 955 -386 1237 -823 l56 -86 59 49 c205 170 478 297 743 345 137 25 403 25 540 0 306 -55 596 -202 817 -415 173 -165 292 -338 375 -542 239 -589 116 -1243 -321 -1697 -273 -284 -613 -447 -1006 -484 -290 -27 -628 42 -880 180 -173 95 -384 269 -489 406 l-41 53 -88 -89 c-382 -391 -928 -596 -1459 -550 -626 55 -1153 391 -1466 934 -83 145 -162 358 -196 526 -105 514 3 1019 309 1455 83 119 298 334 417 417 288 202 549 299 933 344 81 10 350 -4 460 -23z m2855 -3998 c275 -63 487 -177 681 -365 199 -192 334 -442 391 -725 16 -80 18 -155 18 -788 0 -633 -2 -708 -18 -788 -114 -560 -535 -981 -1092 -1094 -84 -17 -169 -18 -1250 -18 -1081 0 -1166 1 -1250 18 -187 38 -385 122 -534 228 -101 71 -230 196 -308 299 -58 77 -193 326 -193 356 0 7 -4 15 -9 19 -5 3 -292 -136 -638 -308 -380 -189 -650 -318 -683 -326 -230 -53 -454 6 -618 164 -88 84 -141 166 -180 280 l-27 80 0 1085 c0 1025 1 1088 18 1145 66 213 218 375 425 453 54 20 91 26 188 30 187 7 185 7 889 -348 336 -171 614 -310 617 -310 3 0 13 21 23 48 88 233 263 467 463 617 192 144 452 246 687 268 22 2 551 3 1175 3 1111 -2 1137 -2 1225 -23z"/><path d="M4062 8434 c-388 -70 -712 -346 -840 -714 -139 -397 -40 -838 253 -1133 168 -169 372 -275 599 -312 670 -109 1276 404 1276 1080 0 465 -294 881 -732 1034 -169 59 -386 77 -556 45z"/><path d="M6765 7913 c-510 -108 -797 -646 -604 -1131 146 -368 549 -586 937 -506 654 134 898 939 427 1409 -197 198 -490 286 -760 228z"/><path d="M5051 4479 c-243 -48 -439 -220 -519 -453 l-27 -81 -3 -624 c-3 -598 -2 -627 18 -705 32 -131 82 -218 180 -316 68 -69 102 -94 170 -127 157 -76 101 -73 1285 -73 1184 0 1128 -3 1285 73 120 58 239 177 297 297 74 152 74 154 71 855 l-3 620 -28 81 c-68 201 -230 363 -431 432 l-81 27 -1085 2 c-597 0 -1105 -3 -1129 -8z"/><path d="M2544 4064 c-37 -9 -103 -73 -114 -112 -8 -25 -10 -245 -8 -688 l3 -651 28 -36 c37 -49 81 -71 142 -71 46 0 96 23 620 291 l570 291 0 201 0 202 -566 286 c-574 289 -605 302 -675 287z"/></g></svg>
