<?xml version="1.0" encoding="UTF-8"?>
<svg xmlns="http://www.w3.org/2000/svg" xmlns:i="http://ns.adobe.com/AdobeIllustrator/10.0/" version="1.1" viewBox="0 0 128 80">
  <path class="cls-1" d="M100.47191,11.87948l-1.9413,7.0196c-.10277.37163-.49074.58636-.86022.47612l-32.56441-9.71607c-.21659-.06462-.4511-.0188-.62742.12261l-32.25064,25.86279c-.09415.0755-.2065.12493-.32579.14331l-19.18897,2.95717c-.35531.05476-.60863.37372-.58152.73219l.08338,1.10265c.02663.35219.3155.62706.66857.63619l22.28879.57618.25422.00712,16.46922-8.7974c.23057-.12316.511-.10509.72385.04664l11.66782,8.31729c.18297.13043.29076.34195.28875.56663l-.09843,11.03609c-.00127.14283.04192.28252.12359.3997l16.41303,23.55049c.12871.18468.3396.29476.56471.29476h5.19569c.51834,0,.85069-.55125.60872-1.00965l-11.69823-22.16122c-.1144-.21672-.10495-.47793.02482-.68581l6.09931-9.77079c.0664-.10637.16059-.19258.27241-.24932l21.80607-11.06554c.22156-.11243.48651-.09674.69325.04106l6.23133,4.15349c.11306.07536.24589.11557.38177.11557h5.66149c.54825,0,.87646-.60971.57456-1.06735l-15.72045-23.83006c-.32547-.49337-1.08044-.37411-1.23798.19556Z"/>
</svg>
